<svg width="20" height="16" viewBox="0 0 20 16" fill="none" xmlns="http://www.w3.org/2000/svg">
<path d="M9.99 16C5.861 16 2.148 13.115 0.0590044 8.281C0.0202963 8.19079 0.000335693 8.09366 0.000335693 7.9955C0.000335693 7.89734 0.0202963 7.80021 0.0590044 7.71C2.146 2.882 5.858 0 9.99 0H10C12.0877 0.0191474 14.1083 0.739765 15.737 2.046C17.5899 3.55189 19.0342 5.49965 19.937 7.71C19.9757 7.80022 19.9956 7.89735 19.9956 7.9955C19.9956 8.09365 19.9757 8.19078 19.937 8.281C17.851 13.115 14.135 16 10 16H9.99ZM6.1 8C6.09585 8.77223 6.32104 9.52831 6.74704 10.1724C7.17304 10.8165 7.78067 11.3197 8.49293 11.6181C9.20519 11.9165 9.99 11.9967 10.7479 11.8486C11.5058 11.7005 12.2027 11.3307 12.7502 10.7862C13.2977 10.2416 13.6713 9.5467 13.8235 8.78961C13.9757 8.03252 13.8997 7.24728 13.6051 6.53343C13.3105 5.81957 12.8107 5.20923 12.1689 4.77976C11.5271 4.35028 10.7722 4.12101 10 4.121C8.96848 4.11834 7.97814 4.5255 7.24678 5.25293C6.51542 5.98035 6.10292 6.96848 6.1 8ZM7.562 8C7.56306 7.84046 7.57947 7.6814 7.611 7.525H7.66C8.17703 7.5254 8.67412 7.32557 9.047 6.96741C9.41989 6.60926 9.63958 6.12062 9.66 5.604C9.77227 5.58428 9.88602 5.57424 10 5.574C10.4773 5.57775 10.9428 5.72263 11.338 5.99039C11.7331 6.25816 12.0402 6.63684 12.2206 7.07876C12.401 7.52069 12.4466 8.00611 12.3517 8.4739C12.2568 8.94169 12.0256 9.37095 11.6873 9.70763C11.3489 10.0443 10.9185 10.2734 10.4503 10.366C9.98201 10.4586 9.49683 10.4106 9.05579 10.228C8.61476 10.0454 8.2376 9.73648 7.97179 9.34002C7.70598 8.94356 7.5634 8.47732 7.562 8Z" fill="#D8EFFE"/>
</svg>
