<svg width="20" height="18" viewBox="0 0 20 18" fill="none" xmlns="http://www.w3.org/2000/svg">
<path d="M15 0.5H5C2 0.5 0 2 0 5.5V12.5C0 16 2 17.5 5 17.5H15C18 17.5 20 16 20 12.5V5.5C20 2 18 0.5 15 0.5ZM15.47 6.59L12.34 9.09C11.6675 9.60239 10.8454 9.87989 10 9.87989C9.15456 9.87989 8.33248 9.60239 7.66 9.09L4.53 6.59C4.37679 6.46314 4.27869 6.28185 4.25632 6.08419C4.23394 5.88654 4.28902 5.6879 4.41 5.53C4.53344 5.37501 4.71332 5.27533 4.91018 5.25283C5.10704 5.23033 5.30478 5.28686 5.46 5.41L8.59 7.91C8.99812 8.20734 9.49005 8.36754 9.995 8.36754C10.4999 8.36754 10.9919 8.20734 11.4 7.91L14.53 5.41C14.6063 5.34774 14.6943 5.30139 14.7888 5.27368C14.8833 5.24596 14.9824 5.23745 15.0803 5.24863C15.1782 5.25981 15.2728 5.29047 15.3586 5.33879C15.4444 5.38712 15.5197 5.45213 15.58 5.53C15.7046 5.68571 15.7629 5.8842 15.7423 6.08255C15.7217 6.28091 15.6239 6.46319 15.47 6.59Z" fill="#57A5D8"/>
</svg>
